<?xml version="1.0" encoding="utf-8" ?>
<!DOCTYPE svg PUBLIC "-//W3C//DTD SVG 1.1//EN" "http://www.w3.org/Graphics/SVG/1.1/DTD/svg11.dtd">
<svg xmlns="http://www.w3.org/2000/svg" version="1.1" width="206" height="113" viewBox="0 0 206 113">
  <metadata>
    <rdf:RDF xmlns:rdf="http://www.w3.org/1999/02/22-rdf-syntax-ns#" xmlns:rdfs="http://www.w3.org/2000/01/rdf-schema#" xmlns:dc="http://purl.org/dc/elements/1.1/">
      <rdf:Description>
        <dc:date>2021-06-10</dc:date>
      </rdf:Description>
    </rdf:RDF>
  </metadata>
  <defs/>
  <g id="PageItem507" transform="scale(1)">
    <path d="M 38.1561061603816 26.3956793290685 C 38.4084474308283 26.9660261613439 38.746303723553 27.4668920976232 39.1700546009333 27.8982771379064 C 39.5934240085871 28.3300455552648 40.0942899448664 28.6679018479894 40.6726533634455 28.9122274858068 C 41.2506343586238 29.1565512162755 41.865646527508 29.2787149888585 42.5173074466975 29.2787149888585 C 43.1685859424861 29.2787149888585 43.7793981296809 29.1565512162755 44.3497449619563 28.9122274858068 C 44.9197084171565 28.6679018479894 45.4205762607844 28.3300455552648 45.8523427707942 27.8982771379064 C 46.283729718426 27.4668920976232 46.6219674808772 26.9660261613439 46.8662931186946 26.3956793290685 C 47.1106168491633 25.8257139665197 47.2327806217463 25.2149027329991 47.2327806217463 24.5632418138097 C 47.2327806217463 23.9119623643468 47.1106168491633 23.3011492234777 46.8662931186946 22.7308023912023 C 46.6219674808772 22.1608408433507 46.283729718426 21.6599749070714 45.8523427707942 21.2282045823644 C 45.4205762607844 20.7968195420812 44.9197084171565 20.45858177963 44.3497449619563 20.2142580491613 C 43.7793981296809 19.9699305039952 43.1685859424861 19.8477686387609 42.5173074466975 19.8477686387609 C 41.865646527508 19.8477686387609 41.2506343586238 19.9699305039952 40.6726533634455 20.2142580491613 C 40.0942899448664 20.45858177963 39.5934240085871 20.7968195420812 39.1700546009333 21.2282045823644 C 38.746303723553 21.6599749070714 38.4084474308283 22.1608408433507 38.1561061603816 22.7308023912023 C 37.9033824665339 23.3011492234777 37.7774020893366 23.9119623643468 37.7774020893366 24.5632418138097 C 37.7774020893366 25.2149027329991 37.9033824665339 25.8257139665197 38.1561061603816 26.3956793290685 Z M 28.7129441959651 53.8089450341771 C 28.957269237736 54.3792913896154 29.2951248748095 54.8801575643132 29.7268929941447 55.3115439158986 C 30.1582793457301 55.7433120352338 30.659145520428 56.0811676723073 31.2294918758662 56.3254927140783 C 31.7994562847407 56.5698177111457 32.4102689487727 56.69198021713 33.061929391125 56.69198021713 C 33.061929391125 56.69198021713 51.9971181614192 56.69198021713 51.9971181614192 56.69198021713 C 52.6483957035334 56.69198021713 53.263408826092 56.5698177111457 53.8417722446711 56.3254927140783 C 54.419752286175 56.0811676723073 54.9206182224543 55.7433120352338 55.344370053509 55.3115439158986 C 55.7677404148371 54.8801575643132 56.1017781955989 54.3792913896154 56.3461019260676 53.8089450341771 C 56.590427563885 53.2389806253026 56.7125894291194 52.6281679612706 56.7125894291194 51.9765075189183 C 56.7125894291194 51.9765075189183 56.7125894291194 41.5682619554113 56.7125894291194 41.5682619554113 L 34.9432317478449 41.5682619554113 L 34.9432317478449 38.7340925675939 L 56.7125894291194 38.7340925675939 C 56.7125894291194 38.7340925675939 56.7125894291194 36.8527887803624 56.7125894291194 36.8527887803624 C 56.7125894291194 36.2015112382482 56.590427563885 35.590698097379 56.3461019260676 35.0203512651036 C 56.1017781955989 34.4503878099034 55.7677404148371 33.9495218736241 55.344370053509 33.5177534562658 C 54.9206182224543 33.0863665086339 54.419752286175 32.7481287461827 53.8417722446711 32.503805015714 C 53.263408826092 32.2594793778966 52.6483957035334 32.1373175126622 51.9971181614192 32.1373175126622 C 51.9971181614192 32.1373175126622 33.061929391125 32.1373175126622 33.061929391125 32.1373175126622 C 32.4102689487727 32.1373175126622 31.7994562847407 32.2594793778966 31.2294918758662 32.503805015714 C 30.659145520428 32.7481287461827 30.1582793457301 33.0863665086339 29.7268929941447 33.5177534562658 C 29.2951248748095 33.9495218736241 28.957269237736 34.4503878099034 28.7129441959651 35.0203512651036 C 28.4686191988976 35.590698097379 28.3464566929133 36.2015112382482 28.3464566929133 36.8527887803624 C 28.3464566929133 36.8527887803624 28.3464566929133 47.2610348207067 28.3464566929133 47.2610348207067 L 50.0669500095637 47.2610348207067 L 50.0669500095637 50.0952051621984 L 28.3464566929133 50.0952051621984 C 28.3464566929133 50.0952051621984 28.3464566929133 51.9765075189183 28.3464566929133 51.9765075189183 C 28.3464566929133 52.6281679612706 28.4686191988976 53.2389806253026 28.7129441959651 53.8089450341771 Z " stroke="none" fill="#FFFFFF"/>
  </g>
  <g id="PageItem509" transform="scale(1)">
    <path d="M 73.2186171659172 85.0393700787 C 73.2186171659172 85.0393700787 73.2186171659172 71.6791167446546 73.2186171659172 71.6791167446546 C 74.5870124944389 73.8385892101697 75.8981206067741 76.0336575695447 77.15194197976 78.2643213459424 C 78.4055783399284 80.4949855991773 79.6217648633659 82.7534585186414 80.8005015500725 85.0393700787 C 80.8005015500725 85.0393700787 82.983705247277 85.0393700787 82.983705247277 85.0393700787 L 82.983705247277 68.1551423260145 L 80.6343886502922 68.1551423260145 C 80.6343886502922 68.1551423260145 80.6343886502922 80.2814111896924 80.6343886502922 80.2814111896924 C 80.0885874875725 79.2452426144056 79.5012585767448 78.1794109531812 78.872400964135 77.0837307163648 C 78.2435433515251 75.9882359692029 77.6028210767448 74.9123931118421 76.9502331861198 73.8563866802625 C 76.2976452954948 72.8003812023572 75.6489507802665 71.7859034725599 75.0043351300895 70.8129544445447 C 74.3595335134208 69.8400054165296 73.7564460881889 68.9541917034559 73.194886887902 68.1551423260145 C 73.194886887902 68.1551423260145 70.8574356683433 68.1551423260145 70.8574356683433 68.1551423260145 L 70.8574356683433 85.0393700787 L 73.2186171659172 85.0393700787 Z M 93.45476695382 84.742739219325 C 94.1151425489128 84.386782188075 94.6273858197868 83.912172813075 94.991315568322 83.318911094325 C 94.991315568322 83.318911094325 95.0150468000114 85.0393700787 95.0150468000114 85.0393700787 L 97.305036271447 85.0393700787 L 97.305036271447 72.7469878384046 L 94.9438550122917 72.7469878384046 C 94.9438550122917 72.7469878384046 94.9438550122917 79.9135890194349 94.9438550122917 79.9135890194349 C 94.9438550122917 80.3804116436414 94.8646905072868 80.8173861690931 94.7065503247917 81.2246973701887 C 94.5482232221306 81.6321940609388 94.328717912072 81.9900050350599 94.04802867257 82.2985010334424 C 93.7671563275993 82.606997031825 93.4369713910759 82.8502342888288 93.0572831281364 83.0282128044538 C 92.677594865197 83.2061914392881 92.2700993665397 83.2951806971006 91.8351647504509 83.2951806971006 C 91.044086182946 83.2951806971006 90.4567582257927 83.0934716650419 90.0731770642936 82.6900537201337 C 89.6894108899772 82.2866358944349 89.4977128156364 81.6262612530164 89.4977128156364 80.708559531825 C 89.4977128156364 80.708559531825 89.4977128156364 72.7469878384046 89.4977128156364 72.7469878384046 L 87.1483971723259 72.7469878384046 C 87.1483971723259 72.7469878384046 87.1483971723259 81.2187648006849 87.1483971723259 81.2187648006849 C 87.1483971723259 82.5714013763837 87.4924885877311 83.5858788677625 88.1806714185417 84.2621972748212 C 88.8688561567009 84.938515592473 89.8456971296013 85.2766747662 91.1113850721061 85.2766747662 C 92.0131432660759 85.2766747662 92.7942082532585 85.098696250575 93.45476695382 84.742739219325 Z M 90.4884602674186 71.0561919399671 C 90.7138993390739 70.9653487392835 90.9055974134147 70.8111005016736 91.0639245160759 70.5934472271375 C 91.222064698571 70.3759799190931 91.3012292035759 70.1208777615003 91.3012292035759 69.8281398006849 C 91.3012292035759 69.630509872096 91.2556206830681 69.430655021327 91.1647774823845 69.2289462276868 C 91.0737492688835 69.0272374340467 90.9135682233513 68.8453641125135 90.6842362531364 68.6831441112928 C 90.4547173627556 68.5211110302381 90.1740319379509 68.4399075695447 89.8418042310417 68.4399075695447 C 89.4224431165397 68.4399075695447 89.0783517011345 68.5724644848279 88.8095299848259 68.837393302577 C 88.5405213483513 69.1025071331434 88.406110490197 69.4326939770154 88.406110490197 69.8281398006849 C 88.406110490197 70.0179839321546 88.4417073377311 70.1941085049085 88.5128991254509 70.3561425396375 C 88.584089005822 70.5183625408582 88.6829049237907 70.6627850719861 88.8095299848259 70.7892241665296 C 88.935968125695 70.9158482738904 89.0883614667595 71.0146632381849 89.2663399823845 71.0858550259046 C 89.4443184980095 71.15704585995 89.6360165723503 71.1926417538099 89.8418042310417 71.1926417538099 C 90.0474068769157 71.1926417538099 90.2630211957634 71.1472201534681 90.4884602674186 71.0561919399671 Z M 95.2760827192009 71.0561919399671 C 95.4974419721306 70.9653487392835 95.6872861036003 70.8111005016736 95.8456132062614 70.5934472271375 C 96.0037552961052 70.3759799190931 96.0829178937614 70.1208777615003 96.0829178937614 69.8281398006849 C 96.0829178937614 69.630509872096 96.0373093732536 69.430655021327 95.94646617257 69.2289462276868 C 95.8554398664177 69.0272374340467 95.6952569135368 68.8453641125135 95.465924943322 68.6831441112928 C 95.2364060529411 68.5211110302381 94.9557206281364 68.4399075695447 94.6234948285759 68.4399075695447 C 94.4177071698845 68.4399075695447 94.2061707624138 68.4855141827039 93.988702500695 68.5763573833875 C 93.7710511335075 68.6673855968885 93.5852868207634 68.8275666424207 93.4310376294792 69.0568995663099 C 93.276788438195 69.2864184566907 93.1996667035759 69.5433745571546 93.1996667035759 69.8281398006849 C 93.1996667035759 70.0179839321546 93.2352616437614 70.1941085049085 93.3064515241325 70.3561425396375 C 93.3776452192009 70.5183625408582 93.476459229821 70.6627850719861 93.6030823835075 70.7892241665296 C 93.7295224317253 70.9158482738904 93.8798768171013 71.0146632381849 94.0539624341667 71.0858550259046 C 94.2278611310661 71.15704585995 94.4177071698845 71.1926417538099 94.6234948285759 71.1926417538099 C 94.8370682843864 71.1926417538099 95.0545365461052 71.1472201534681 95.2760827192009 71.0561919399671 Z M 103.652929032677 85.0393700787 C 103.652929032677 85.0393700787 103.652929032677 78.3829736896924 103.652929032677 78.3829736896924 C 103.652929032677 78.0032863804273 103.724118913049 77.6078400799207 103.866502488488 77.1964502521924 C 104.008886063927 76.7852454372816 104.226350510949 76.4094519802503 104.519090379113 76.0692534634046 C 104.811643327111 75.7292399593763 105.175569260949 75.4504075237684 105.610692704552 75.2327542492322 C 106.045625413293 75.0152869411878 106.559911454552 74.9064603039197 107.153173173302 74.9064603039197 C 107.524888718957 74.9064603039197 107.805761063927 74.9301905819349 107.995603288049 74.9776520916395 C 107.995603288049 74.9776520916395 107.995603288049 72.7469878384046 107.995603288049 72.7469878384046 C 107.782029832238 72.6995263287 107.473535264367 72.6757960506849 107.070115769738 72.6757960506849 C 106.674485886925 72.6757960506849 106.263280595177 72.7490267940931 105.836129868859 72.8953032680921 C 105.408982957238 73.0417647549085 104.997590745324 73.3007607647352 104.602147782677 73.6724763103895 C 104.206514085168 74.0443768688611 103.870393479699 74.5110144802503 103.593602860802 75.0725732037 C 103.593602860802 75.0725732037 103.546140397424 72.7469878384046 103.546140397424 72.7469878384046 L 101.291745866174 72.7469878384046 L 101.291745866174 85.0393700787 L 103.652929032677 85.0393700787 Z M 112.670507157677 85.0393700787 C 112.670507157677 85.0393700787 112.670507157677 77.8964991756849 112.670507157677 77.8964991756849 C 112.670507157677 77.4298620411329 112.769323075646 76.9394936748914 112.967138017052 76.4252104946546 C 113.164766038293 75.9111123272352 113.520723069543 75.4641261288099 114.035009110802 75.0844388195447 C 114.549104417199 74.7047515102796 115.122529710168 74.5149073788099 115.755468095177 74.5149073788099 C 116.546357835168 74.5149073788099 117.135728562707 74.7284817882947 117.523385728234 75.1556306072645 C 117.910859788293 75.5827784725599 118.104783738488 76.2590966412 118.104783738488 77.1845851131849 C 118.104783738488 77.1845851131849 118.104783738488 85.0393700787 118.104783738488 85.0393700787 L 120.465966904992 85.0393700787 C 120.465966904992 85.0393700787 120.465966904992 76.5082669445447 120.465966904992 76.5082669445447 C 120.465966904992 75.8834881969861 120.351205552453 75.2605633922986 120.121873582238 74.6394925304822 C 119.892354691857 74.0186066814832 119.469285691613 73.5063624569349 118.852292741174 73.1029448696546 C 118.235299790734 72.6995263287 117.444223130578 72.4978175350599 116.479245866174 72.4978175350599 C 115.577489579552 72.4978175350599 114.800317490929 72.6798749157361 114.147729600304 73.0436186977796 C 113.495141709679 73.4075474926404 112.982896531457 73.8821568676404 112.611180985802 74.4674468227796 C 112.611180985802 74.4674468227796 112.563718522424 72.7469878384046 112.563718522424 72.7469878384046 L 110.309323991174 72.7469878384046 L 110.309323991174 85.0393700787 L 112.670507157677 85.0393700787 Z M 132.129480088586 84.8435937204532 C 132.770204270715 84.5549348184041 133.313966477746 84.1316796728544 133.760949815148 83.5740137287549 C 134.207750047082 83.0163476654462 134.549989426965 82.3322427460126 134.787294114465 81.5213282295637 C 135.024598801965 80.7105989643507 135.143251145715 79.7791781612806 135.143251145715 78.7270655819349 C 135.143251145715 77.7303857990674 135.036462510461 76.8445716091566 134.822892869347 76.0692534634046 C 134.60931559884 75.2941193767957 134.296739304894 74.6435713955335 133.885537827843 74.117422599452 C 133.474145615929 73.5914588161878 132.967836106652 73.190080184596 132.366784776086 72.9131007381849 C 131.76555034005 72.6363072582654 131.081262315148 72.4978175350599 130.31409999215 72.4978175350599 C 129.831517899865 72.4978175350599 129.347085679406 72.5690093227796 128.860608781213 72.7113919445447 C 128.374135697716 72.8537745663099 127.946984971398 73.0614161678724 127.579164231652 73.3343167492322 C 127.211343491906 73.6072173305921 126.932508195275 73.9058871456556 126.742665971154 74.2301421352796 C 126.742665971154 74.2301421352796 126.742665971154 67.182192344325 126.742665971154 67.182192344325 L 124.38148280465 67.182192344325 L 124.38148280465 85.0393700787 L 126.6358773359 85.0393700787 C 126.6358773359 85.0393700787 126.683339799279 83.9952295013837 126.683339799279 83.9952295013837 C 127.01556559884 84.3591584750585 127.450502122277 84.6637612768583 127.988515580529 84.9088525065355 C 128.526342118615 85.1539437436633 129.17893000924 85.2766747662 129.946279252404 85.2766747662 C 130.760900224084 85.2766747662 131.488759721154 85.1322526150517 132.129480088586 84.8435937204532 Z M 127.881726945275 82.9807520100049 C 127.422876084679 82.7237954327039 127.04318782174 82.3737712093763 126.742665971154 81.9306788631849 C 126.742665971154 81.9306788631849 126.742665971154 78.8219876476697 126.742665971154 78.8219876476697 C 126.742665971154 77.4141035267286 126.999620164269 76.3402991482191 127.513906205529 75.600576896327 C 128.028001511925 74.8610387035779 128.763646806115 74.4911771007947 129.7208382734 74.4911771007947 C 130.258668626183 74.4911771007947 130.759046281213 74.6276269146375 131.221791947716 74.9005274959974 C 131.684533799523 75.1734280773572 132.032518113488 75.6421046444349 132.265931809777 76.3065581509046 C 132.4991585859 76.9710107037 132.615956986779 77.7858185955457 132.615956986779 78.75079585995 C 132.615956986779 79.46270992245 132.534753526086 80.182596225398 132.372720445031 80.9102688023023 C 132.210496629113 81.6381266304426 131.876233781213 82.2293489166669 131.370107377404 82.6841211506299 C 130.863794053429 83.1390787550382 130.226964677209 83.3663721271924 129.459802354211 83.3663721271924 C 128.866540635461 83.3663721271924 128.340394700402 83.2378938385419 127.881726945275 82.9807520100049 Z M 145.970269883508 85.2232812085323 C 146.567422593468 85.148011129456 147.123048508996 85.0315835188277 147.637330735558 84.8732568063907 C 147.637330735558 84.8732568063907 147.174592698449 83.0697412678174 147.174592698449 83.0697412678174 C 146.786927903527 83.1806069799833 146.336053574914 83.2734894939832 145.82195445382 83.3485741802625 C 145.307672227258 83.4238443561964 144.777810777062 83.4612939545087 144.232011521691 83.4612939545087 C 143.053277696008 83.4612939545087 142.163385117883 83.1311067530088 141.562333787316 82.4705469795637 C 140.961099351281 81.8101725765638 140.613115037316 80.8589143940382 140.518190110558 79.6169581600599 C 140.518190110558 79.6169581600599 148.361116135949 79.6169581600599 148.361116135949 79.6169581600599 C 148.392625535363 79.2057538219861 148.408570969933 78.7270655819349 148.408570969933 78.1812648960523 C 148.408570969933 76.3382601925306 147.993287766808 74.9224038311414 147.162721360558 73.9335112759046 C 146.332154954308 72.9448037334852 145.098176682824 72.4503569790296 143.460771287316 72.4503569790296 C 142.582742417687 72.4503569790296 141.803529466027 72.6066441723279 141.123323167199 72.9190335461072 C 140.442926133508 73.2316079327039 139.87339183175 73.6724763103895 139.41472789132 74.24200679745 C 138.955873216027 74.8115382381849 138.607888902062 75.4937892147474 138.370584214562 76.2887597271375 C 138.133279527062 77.0837307163648 138.014627183312 77.9599042126111 138.014627183312 78.9169092365674 C 138.014627183312 79.8978305050306 138.145143235558 80.7838297077589 138.406182969445 81.5747218319349 C 138.667215073937 82.3657992073469 139.048761094445 83.0400781818799 139.551179612511 83.5977441259794 C 140.053407395715 84.1554101296834 140.668359483117 84.5845979043416 141.396218980187 84.8851220348052 C 142.123895371789 85.1856461652688 142.954461778039 85.336000938075 143.887918198937 85.336000938075 C 144.678811753625 85.336000938075 145.372926438683 85.2983658799104 145.970269883508 85.2232812085323 Z M 141.301301682824 75.1674952694349 C 141.783693040246 74.5110144802503 142.48374339425 74.182680625575 143.401445115441 74.182680625575 C 144.271501267785 74.182680625575 144.910180772179 74.4596600719861 145.317681992883 75.013247031825 C 145.724992478722 75.5670199581556 145.928743089074 76.3501258083753 145.928743089074 77.3625636288099 C 145.928743089074 77.3625636288099 145.928743089074 77.9202294537 145.928743089074 77.9202294537 C 145.928743089074 77.9202294537 140.470735276574 77.9202294537 140.470735276574 77.9202294537 C 140.541925156945 76.7416777798109 140.818719590539 75.8241620251111 141.301301682824 75.1674952694349 Z M 154.05641337716 85.0393700787 C 154.05641337716 85.0393700787 154.05641337716 78.3829736896924 154.05641337716 78.3829736896924 C 154.05641337716 78.0032863804273 154.127610886925 77.6078400799207 154.269990647668 77.1964502521924 C 154.41237040841 76.7852454372816 154.629838670129 76.4094519802503 154.922578538293 76.0692534634046 C 155.215127671593 75.7292399593763 155.579057420129 75.4504075237684 156.014177049035 75.2327542492322 C 156.449113572472 75.0152869411878 156.963395799035 74.9064603039197 157.556657517785 74.9064603039197 C 157.928376878136 74.9064603039197 158.20924540841 74.9301905819349 158.399095261925 74.9776520916395 C 158.399095261925 74.9776520916395 158.399095261925 72.7469878384046 158.399095261925 72.7469878384046 C 158.185517991418 72.6995263287 157.877023423547 72.6757960506849 157.473603928918 72.6757960506849 C 157.077974046105 72.6757960506849 156.66676493966 72.7490267940931 156.239618028039 72.8953032680921 C 155.812471116418 73.0417647549085 155.401078904504 73.3007607647352 155.00563212716 73.6724763103895 C 154.610002244347 74.0443768688611 154.273881638879 74.5110144802503 153.997087205285 75.0725732037 C 153.997087205285 75.0725732037 153.9496323713 72.7469878384046 153.9496323713 72.7469878384046 L 151.69523784005 72.7469878384046 L 151.69523784005 85.0393700787 L 154.05641337716 85.0393700787 Z M 167.505662644738 89.8625874706678 C 168.197740281457 89.6449346729688 168.773202622765 89.3108544537 169.232057298058 88.8599753567152 C 169.659204209679 88.4328270145826 169.985498154992 87.9146499821119 170.210939133996 87.3056297489576 C 170.436372483605 86.696424145358 170.549096787804 85.9489144274168 170.549096787804 85.063100546705 C 170.549096787804 85.063100546705 170.549096787804 72.7469878384046 170.549096787804 72.7469878384046 L 168.294702256554 72.7469878384046 C 168.294702256554 72.7469878384046 168.235376084679 73.7911286541395 168.235376084679 73.7911286541395 C 168.06926127755 73.6172280498914 167.839738572472 73.4253449627332 167.547189439172 73.2156644054822 C 167.254457200402 73.0061688610486 166.878656113976 72.834123153346 166.419992173547 72.6995263287 C 165.961145127648 72.5651154705457 165.44296428048 72.4978175350599 164.8656479963 72.4978175350599 C 164.161523545617 72.4978175350599 163.505037034386 72.640200156825 162.896020615929 72.9249663540296 C 162.286813462609 73.2097315975599 161.754914964074 73.6231608578138 161.300142014855 74.1648831554822 C 160.845185960168 74.7067904659681 160.487374986047 75.3751368709974 160.226342881554 76.1701073833875 C 159.965303147668 76.9650778957777 159.834787095422 77.8727688976697 159.834787095422 78.8931789585523 C 159.834787095422 79.9927525707654 159.955293382043 80.9360385128431 160.196679795617 81.7230372616224 C 160.437875474328 82.5102212616376 160.773996079797 83.1548371502332 161.205224717492 83.6570702978544 C 161.636262620324 84.1594888159208 162.148507798547 84.527311045783 162.741769517297 84.760537076848 C 163.335031236047 84.9939484783582 163.983545029992 85.1105614789896 164.687669480675 85.1105614789896 C 165.502290452355 85.1105614789896 166.192514146203 84.9663247355394 166.758149827355 84.6774804481439 C 167.323602403039 84.388821560996 167.808229173058 83.9359033295087 168.211641038293 83.318911094325 C 168.211641038293 83.318911094325 168.211641038293 85.2054833510093 168.211641038293 85.2054833510093 C 168.211641038293 86.2733544298582 167.924836839074 87.0642464348249 167.351411546105 87.5785300918989 C 166.777803147668 88.0926284977369 165.874192918175 88.3497703262739 164.640207017297 88.3497703262739 C 163.706750596398 88.3497703262739 162.718042100304 88.2192528435163 161.673898423547 87.9582176395826 C 161.673898423547 87.9582176395826 161.317941392297 89.7498679348402 161.317941392297 89.7498679348402 C 161.681688035363 89.836817760127 162.176133836144 89.9317398258619 162.801095689172 90.0346336552076 C 163.42587443673 90.1373419948987 164.201196397179 90.1888814159803 165.126680100793 90.1888814159803 C 166.020471299523 90.1888814159803 166.81340190255 90.0800552555494 167.505662644738 89.8625874706678 Z M 163.85116740548 82.8561670967512 C 163.475373948449 82.6188624092512 163.178743089074 82.3025796600751 162.961274827355 81.9069483467512 C 162.743623460168 81.5115022846632 162.593454087609 81.0526514240674 162.510400498742 80.5305810162 C 162.42733928048 80.0085110851697 162.385812486047 79.46270992245 162.385812486047 78.8931789585523 C 162.385812486047 78.1972089001111 162.462938035363 77.5742840954236 162.617189133996 77.0244040676527 C 162.771432603234 76.4747100063734 162.985009873742 76.0140052029066 163.25790568673 75.6421046444349 C 163.530809129113 75.2703890987806 163.858957017297 74.9856238552503 164.242723191613 74.7878079601697 C 164.626306260461 74.5901780315809 165.051416123742 74.4911771007947 165.518235886925 74.4911771007947 C 165.858247483605 74.4911771007947 166.198449815148 74.5367837139539 166.538644517297 74.6276269146375 C 166.878656113976 74.7186560818128 167.17139598214 74.8471341320447 167.416673386925 75.013247031825 C 167.661760056847 75.1793608852796 167.918908799523 75.3929352947645 168.1879136213 75.6539702602796 C 168.1879136213 75.6539702602796 168.1879136213 79.3559231945447 168.1879136213 79.3559231945447 C 168.1879136213 79.9334263988904 168.102815354699 80.5187158771924 167.932809556359 81.1119775959424 C 167.76262065255 81.7052393146924 167.444299424523 82.2035792061262 166.977662766808 82.606997031825 C 166.51083537423 83.0104150959424 165.945382798547 83.2121240087919 165.280931199425 83.2121240087919 C 164.703431809777 83.2121240087919 164.226777757043 83.0934716650419 163.85116740548 82.8561670967512 Z " stroke="none" fill="#FFFFFF"/>
  </g>
  <g id="PageItem511" transform="scale(1)">
    <path d="M 77.9212461982024 56.6691829178018 C 78.664677289511 56.4556086983067 79.2955738578094 56.1411800112111 79.8137508902801 55.7258968080861 C 80.3317429099334 55.3106136049611 80.7273747000945 54.7985546316487 81.0002743277801 54.1893490280491 C 81.2731749091399 53.5803287948948 81.409625676657 52.8841732467991 81.409625676657 52.1010678734166 C 81.409625676657 51.2942317451817 81.2791077170623 50.6179135765416 81.0180727515472 50.072112890659 C 80.757037786032 49.5263122047764 80.4109064612639 49.0656074013096 79.9798647437347 48.6898129906041 C 79.5486370597137 48.3142045463902 79.0484434638274 47.9997752632481 78.4789120230926 47.7465270485264 C 77.909381536032 47.4934638466221 77.316119817282 47.2522662605626 76.6991273436797 47.0227473701817 C 76.1373826537383 46.8251174415928 75.6232844863189 46.6352733101231 75.1566468749297 46.4532168831212 C 74.6898242507232 46.2713445152623 74.2864061866057 46.0716746773106 73.9463931594146 45.8540223564488 C 73.6061946425689 45.6365550484044 73.3431202445281 45.3853457893712 73.1573549781097 45.1005795921666 C 72.9714046988738 44.8158143486363 72.8785220656646 44.4678290809971 72.8785220656646 44.0564387764317 C 72.8785220656646 43.2418168510777 73.1731134925139 42.6168521370274 73.7624818358672 42.1817325081212 C 74.3516651664031 41.746796938358 75.1762987647307 41.5291446174962 76.2363831076873 41.5291446174962 C 76.7109924826873 41.5291446174962 77.1954280410064 41.5608466591221 77.6898743186248 41.6240657295567 C 78.184136060263 41.687470766483 78.664677289511 41.7764600242955 79.1314999137176 41.8910335029942 C 79.5981375251067 42.0057929481846 80.0332581076873 42.1383498634678 80.4366756949676 42.2885192360264 C 80.4366756949676 42.2885192360264 80.4366756949676 40.1409114326817 80.4366756949676 40.1409114326817 C 80.2705627951873 40.1014235939366 79.9956232581389 40.0281928505284 79.6120420966399 39.9214042152745 C 79.2282759223235 39.8146174873692 78.7438408408416 39.7196963753087 78.1585508857024 39.6366389717442 C 77.5730759177459 39.5535834755284 76.9403254065764 39.5120547737462 76.2601138625396 39.5120547737462 C 75.3661424193633 39.5120547737462 74.5613457236541 39.6208804573399 73.8455387625945 39.8383487190587 C 73.1295458350432 40.0560019935948 72.5225650344146 40.366350504337 72.0242251429809 40.7697690452916 C 71.5258854899657 41.1731875862462 71.14211919644 41.6637404884678 70.8732974801314 42.2410586799962 C 70.6042903933776 42.8185618843419 70.4698795352233 43.4631770576817 70.4698795352233 44.1750911201817 C 70.4698795352233 44.6181834663731 70.5173404488814 45.0393994774205 70.612262395407 45.4387391533238 C 70.7071842227233 45.8382638420445 70.9029605660689 46.2377885307652 71.1995914254439 46.6371272529942 C 71.4962224040282 47.0366519417149 71.8599659476531 47.3807443107945 72.2911929164184 47.6694024528843 C 72.7222346339477 47.9582475151402 73.1493829760802 48.1935122932774 73.5726381812347 48.3753846611363 C 73.9957081351531 48.5574410881382 74.4447328124297 48.7313412155491 74.9193421874297 48.8974545921666 C 75.417682317282 49.0872982467991 75.9733087096465 49.3029120888096 76.5864078078521 49.5441096748692 C 77.199320939566 49.7854932274205 77.7234312567962 50.1097477402073 78.1585508857024 50.5170591797215 C 78.5934864554656 50.924555632053 78.8111387763274 51.4603451217991 78.8111387763274 52.1247981514317 C 78.8111387763274 52.5204294647557 78.7340151343597 52.9357129062993 78.5797668967498 53.3706477608067 C 78.4255186591399 53.8057683433873 78.0615898642791 54.1715510811192 77.4881655249847 54.4681819404942 C 76.9145556960357 54.7648129190785 76.1136523757232 54.9131282295567 75.0854555640472 54.9131282295567 C 74.579143670584 54.9131282295567 74.0333429847014 54.8656673158986 73.4480535063994 54.7707454885823 C 72.8625780616057 54.6758235420567 72.3149234328521 54.5453060592991 71.8047184024108 54.3791926826817 C 71.2945132527602 54.2130795444829 70.9246517691863 54.0706966842991 70.6953189645064 53.9520443405491 C 70.6953189645064 53.9520443405491 70.0071354184402 55.9098079528195 70.0071354184402 55.9098079528195 C 70.1732486758483 55.9889713253361 70.4144466195357 56.0898257817608 70.730914739157 56.2123714115006 C 71.0471973691238 56.3351024116856 71.4348567996276 56.4537547703368 71.8937076602233 56.5683284278494 C 72.3523730311645 56.683087489335 72.8725894961608 56.7819026436192 73.4539858374847 56.8649592723233 C 74.0353824172271 56.9480159308297 74.6779591117156 56.9895442451817 75.3820864234222 56.9895442451817 C 76.3313051734222 56.9895442451817 77.1776300940764 56.8827571298462 77.9212461982024 56.6691829178018 Z M 86.8557659659637 61.605120035587 C 86.8557659659637 61.605120035587 86.8557659659637 55.9454036678654 86.8557659659637 55.9454036678654 C 87.2195087943328 56.2461131538731 87.654628423239 56.4852717842442 88.1609417472137 56.6632502998692 C 88.6670681510222 56.8412288154942 89.2683006797088 56.9302180733067 89.9644562278045 56.9302180733067 C 90.8187519583953 56.9302180733067 91.5760876212371 56.7837565864903 92.2366482291472 56.4912044133526 C 92.8970219168914 56.198652240215 93.4507957968963 55.7733577217442 93.8977810416472 55.2156917776448 C 94.3445812735808 54.6580258335454 94.6827408347381 53.9718814815861 94.9122578177703 53.1570735897404 C 95.1415916953338 52.3424509491307 95.2563511405242 51.416962953983 95.2563511405242 50.3806088890416 C 95.2563511405242 49.3761428322178 95.1198994193328 48.3853953804356 94.8469997916472 47.4083674873692 C 94.5741001639617 46.4315255607945 94.061854985739 45.6445268120152 93.3104511771453 45.0471862282139 C 92.5588642630828 44.4500316109044 91.6137234244597 44.1513608421666 90.4746624503387 44.1513608421666 C 89.968349126364 44.1513608421666 89.4759422812713 44.2245915855748 88.9974400077117 44.3708680595738 C 88.5187527213347 44.5173295463902 88.0856701407683 44.7546342338902 87.6981960807097 45.0827821220738 C 87.3105370078338 45.4111150230748 87.0100132498992 45.780976625858 86.7964397940887 46.1921809639317 C 86.7964397940887 46.1921809639317 86.7489773307097 44.4005311455113 86.7489773307097 44.4005311455113 L 84.4945837531341 44.4005311455113 L 84.4945837531341 61.605120035587 L 86.8557659659637 61.605120035587 Z M 88.0304237876189 54.7114193167073 C 87.6032749686492 54.5058170284611 87.2117229972137 54.2249446834904 86.8557659659637 53.8689876522404 C 86.8557659659637 53.8689876522404 86.8557659659637 50.7128356422764 86.8557659659637 50.7128356422764 C 86.8557659659637 50.0483821358067 86.9210239920867 49.4354690040928 87.0515419516814 48.8737243141514 C 87.1820599112762 48.3121646370274 87.3737560782683 47.8295834984166 87.6270062003387 47.4261659111363 C 87.880069402243 47.0227473701817 88.1924587760222 46.7083190407139 88.5643593344939 46.4828799690587 C 88.9360748801482 46.2574399437291 89.3593288932097 46.1447204079014 89.8339382682097 46.1447204079014 C 90.371768620993 46.1447204079014 90.8701073203338 46.2811702217442 91.3289581809295 46.5540708031041 C 91.7876240287078 46.8269713844639 92.1357952628387 47.2976878609044 92.3730999503387 47.9660333122593 C 92.6104046378387 48.6345656837803 92.7290569815887 49.4551204170567 92.7290569815887 50.428069921909 C 92.7290569815887 50.8789485420567 92.7012478385222 51.3101757492405 92.6459995780242 51.7213805641514 C 92.5905663047088 52.1327703918797 92.507510808493 52.5163510765416 92.3968292746795 52.8723081077916 C 92.2939354453338 53.196748110233 92.1396862540496 53.5248959984166 91.9340855155242 53.8571225132329 C 91.7282978568328 54.1893490280491 91.4099766288055 54.4663279976231 90.9789349112762 54.6876889194829 C 90.5477062735808 54.9092349733693 90.0475136313689 55.0199154342991 89.4779812369597 55.0199154342991 C 88.9399677787078 55.0199154342991 88.4575726065887 54.9172069753987 88.0304237876189 54.7114193167073 Z M 102.986541417624 56.758172171889 C 103.473018315817 56.6435985069257 103.900165227438 56.4893504704815 104.267985967184 56.2954280402047 C 104.635810521628 56.1016910399777 104.938373235251 55.8860774959904 105.175677922751 55.6487728084904 C 105.175677922751 55.6487728084904 105.22314038613 56.6929133858067 105.22314038613 56.6929133858067 L 107.45380368569 56.6929133858067 C 107.45380368569 56.6929133858067 107.45380368569 48.2330010856968 107.45380368569 48.2330010856968 C 107.45380368569 47.5210879768712 107.360736516501 46.908173891483 107.174968389059 46.3938907112462 C 106.989017156149 45.8797915901524 106.70221295693 45.4565366234166 106.314738896872 45.1243098701817 C 105.927081731345 44.7920840706212 105.434672978903 44.5469926323277 104.837520268942 44.3886655296666 C 104.240176824118 44.2305243934971 103.534198430563 44.1513608421666 102.719573644186 44.1513608421666 C 102.30818524697 44.1513608421666 101.869170812155 44.1732371773106 101.40253415444 44.2166198219639 C 100.935710576559 44.2601874794346 100.55212941506 44.3096879448277 100.251605657126 44.3649352516514 C 99.9508968863738 44.4203685249669 99.468499806906 44.535127016483 98.8040463004363 44.7090266670567 C 98.8040463004363 44.7090266670567 98.8040463004363 46.6311953987462 98.8040463004363 46.6311953987462 C 99.3181454215301 46.4493230308873 99.8559738669646 46.2911818947178 100.417718556906 46.1565860237462 C 100.97927823403 46.0221751655919 101.592376378561 45.9548762764317 102.25683179238 45.9548762764317 C 102.78668561318 45.9548762764317 103.28502621987 46.0162423576695 103.751849797751 46.1387875999791 C 104.218486455466 46.2615188087803 104.564616826559 46.4908517326695 104.790057805563 46.8269713844639 C 105.015498784567 47.1632770027501 105.128215459372 47.6397393669468 105.128215459372 48.2567323173863 C 105.128215459372 48.2567323173863 105.128215459372 48.9211853470189 105.128215459372 48.9211853470189 C 105.088542607809 48.9211853470189 105.007526067282 48.9232243027073 104.884978917624 48.9271176781041 C 104.762248662497 48.9311965431553 104.633769658591 48.9330504860264 104.499358800436 48.9330504860264 C 104.364764836813 48.9330504860264 104.236285832907 48.9350899185521 104.113738683249 48.9389828171116 C 103.991008428122 48.9430616821629 103.913882878805 48.944915625034 103.882365849997 48.944915625034 C 103.162479070212 48.9608596290928 102.511932042624 49.0122135605198 101.930537847067 49.0991633858067 C 101.349139836813 49.1862987007481 100.825030950095 49.3207095589024 100.358392385031 49.5025814499241 C 99.527825978781 49.834808203159 98.8989693198455 50.3034847702366 98.4718205008758 50.9086116279942 C 98.044671681906 51.5137389625889 97.8310982260955 52.2831247772557 97.8310982260955 53.2163997616154 C 97.8310982260955 53.8888247932774 97.9319530997527 54.4603954281193 98.1336609397185 54.9309261764866 C 98.335370687033 55.4016421760899 98.6082703147185 55.7852229799611 98.9523617301238 56.0818538393361 C 99.2964550528777 56.3784846987111 99.699872640158 56.5940982352478 100.162616399313 56.7285090859515 C 100.625360158469 56.8629199441058 101.113689092184 56.9302180733067 101.627971318747 56.9302180733067 C 102.04714932778 56.9302180733067 102.500068334128 56.8727458443028 102.986541417624 56.758172171889 Z M 101.188958791281 54.9131282295567 C 100.85673299172 54.7787174906117 100.607562688376 54.5473452534062 100.441449788595 54.2190121139866 C 100.275336888815 53.890864225803 100.192279485251 53.5248959984166 100.192279485251 53.1214779342991 C 100.192279485251 52.662812563358 100.275336888815 52.2751530136448 100.441449788595 51.9586852516514 C 100.607562688376 51.6424025024754 100.858586934592 51.3852604355198 101.194892552878 51.1874450172764 C 101.531009343649 50.9898146118504 101.95222821572 50.8492854561192 102.458537724997 50.7662290062291 C 102.964664128805 50.6831725563389 103.56200757363 50.6416438545567 104.25019040444 50.6416438545567 C 104.25019040444 50.6416438545567 105.128215459372 50.6416438545567 105.128215459372 50.6416438545567 C 105.128215459372 50.6416438545567 105.128215459372 53.9757748569829 105.128215459372 53.9757748569829 C 104.98583569863 54.1261294807774 104.791911748434 54.2863102878911 104.546821263815 54.4563168014866 C 104.30154385903 54.6265088047368 103.967277196432 54.7787174906117 103.544208196188 54.9131282295567 C 103.120952275778 55.0477245773655 102.699737218405 55.1148372616154 102.280559209372 55.1148372616154 C 101.884929326559 55.1148372616154 101.52118649819 55.0477245773655 101.188958791281 54.9131282295567 Z M 113.73050656655 56.6929133858067 C 113.73050656655 56.6929133858067 113.73050656655 50.0365169967991 113.73050656655 50.0365169967991 C 113.73050656655 49.656829687534 113.801696446921 49.2613833870274 113.94408002236 48.8499935592991 C 114.0864635978 48.4387887443882 114.303928044821 48.062995287357 114.596667912985 47.7227967705113 C 114.889220860983 47.382783266483 115.253146794821 47.1039508308751 115.688270238425 46.8862975563389 C 116.123202947165 46.6688302482945 116.637488988425 46.5600036110264 117.230750707175 46.5600036110264 C 117.602466252829 46.5600036110264 117.8833385978 46.5837338890416 118.073180821921 46.6311953987462 C 118.073180821921 46.6311953987462 118.073180821921 44.4005311455113 118.073180821921 44.4005311455113 C 117.85960736611 44.3530696358067 117.551112798239 44.3293393577916 117.14769330361 44.3293393577916 C 116.752063420798 44.3293393577916 116.34085812905 44.4025701011998 115.913707402731 44.5488465751988 C 115.48656049111 44.6953080620152 115.075168279196 44.9543040718419 114.67972531655 45.3260196174962 C 114.28409161904 45.6979201759678 113.947971013571 46.164557787357 113.671180394675 46.7261165108067 C 113.671180394675 46.7261165108067 113.623717931296 44.4005311455113 113.623717931296 44.4005311455113 L 111.369323400046 44.4005311455113 L 111.369323400046 56.6929133858067 L 113.73050656655 56.6929133858067 Z M 122.74808469155 56.6929133858067 C 122.74808469155 56.6929133858067 122.74808469155 50.6416438545567 122.74808469155 50.6416438545567 C 123.230479863669 51.1162532295567 123.758483556296 51.673919531284 124.332091954733 52.3146418060643 C 124.905517247702 52.9553645576817 125.498778966452 53.6672786201817 126.111877110983 54.4503842319829 C 126.724792150046 55.2334896053654 127.280604985739 55.9809993233067 127.778941777731 56.6929133858067 C 127.778941777731 56.6929133858067 130.733386662985 56.6929133858067 130.733386662985 56.6929133858067 C 130.329967168356 56.0759212102276 129.900779393698 55.4491032089573 129.446010259177 54.8122738327366 C 128.991050389792 54.1756299461705 128.520518926169 53.5545590843541 128.034045842673 52.9494319881779 C 127.547572759177 52.3443048920018 127.04719128945 51.7649482216221 126.533092168356 51.2111752952916 C 126.018809941794 50.6575878586155 125.508605626608 50.1592482056004 125.0024792228 49.716155859409 C 125.0024792228 49.716155859409 130.175719884421 44.4005311455113 130.175719884421 44.4005311455113 L 127.339931157614 44.4005311455113 L 122.74808469155 49.1584895576817 L 122.74808469155 38.8357356514317 L 120.386901525046 38.8357356514317 L 120.386901525046 56.6929133858067 L 122.74808469155 56.6929133858067 Z M 137.02789655068 56.758172171889 C 137.514369634177 56.6435985069257 137.941516545798 56.4893504704815 138.309337285544 56.2954280402047 C 138.67715802529 56.1016910399777 138.97972455361 55.8860774959904 139.21702924111 55.6487728084904 C 139.21702924111 55.6487728084904 139.264491704489 56.6929133858067 139.264491704489 56.6929133858067 L 141.495151189352 56.6929133858067 C 141.495151189352 56.6929133858067 141.495151189352 48.2330010856968 141.495151189352 48.2330010856968 C 141.495151189352 47.5210879768712 141.40208783486 46.908173891483 141.216319707419 46.3938907112462 C 141.030368474509 45.8797915901524 140.74356427529 45.4565366234166 140.356090215231 45.1243098701817 C 139.968433049704 44.7920840706212 139.476024297262 44.5469926323277 138.878871587302 44.3886655296666 C 138.281528142477 44.2305243934971 137.575549748923 44.1513608421666 136.760928777243 44.1513608421666 C 136.349536565329 44.1513608421666 135.910525945212 44.1732371773106 135.443881658102 44.2166198219639 C 134.977061894919 44.2601874794346 134.593478826071 44.3096879448277 134.292956975485 44.3649352516514 C 133.992244390036 44.4203685249669 133.509853032614 44.535127016483 132.845397618796 44.7090266670567 C 132.845397618796 44.7090266670567 132.845397618796 46.6311953987462 132.845397618796 46.6311953987462 C 133.359500554587 46.4493230308873 133.897327092673 46.2911818947178 134.459071782614 46.1565860237462 C 135.020633367087 46.0221751655919 135.633731511618 45.9548762764317 136.298183110739 45.9548762764317 C 136.82803693154 45.9548762764317 137.326381352927 46.0162423576695 137.79320111611 46.1387875999791 C 138.259837773825 46.2615188087803 138.605968144919 46.4908517326695 138.831409123923 46.8269713844639 C 139.056850102927 47.1632770027501 139.169566777731 47.6397393669468 139.169566777731 48.2567323173863 C 139.169566777731 48.2567323173863 139.169566777731 48.9211853470189 139.169566777731 48.9211853470189 C 139.129893926169 48.9211853470189 139.048877385641 48.9232243027073 138.92633405068 48.9271176781041 C 138.803599980856 48.9311965431553 138.67512097695 48.9330504860264 138.540713933493 48.9330504860264 C 138.406116155173 48.9330504860264 138.277637151266 48.9350899185521 138.155093816305 48.9389828171116 C 138.032359746481 48.9430616821629 137.955234197165 48.944915625034 137.923717168356 48.944915625034 C 137.203830388571 48.9608596290928 136.55328717568 49.0122135605198 135.971889165427 49.0991633858067 C 135.390491155173 49.1862987007481 134.866382268454 49.3207095589024 134.399745610739 49.5025814499241 C 133.569179204489 49.834808203159 132.940318730856 50.3034847702366 132.513171819235 50.9086116279942 C 132.086024907614 51.5137389625889 131.872447637106 52.2831247772557 131.872447637106 53.2163997616154 C 131.872447637106 53.8888247932774 131.973304418112 54.4603954281193 132.175014165427 54.9309261764866 C 132.376720098044 55.4016421760899 132.649623540427 55.7852229799611 132.993713048483 56.0818538393361 C 133.33780255654 56.3784846987111 133.741222051169 56.5940982352478 134.203967717673 56.7285090859515 C 134.666713384177 56.8629199441058 135.155040410544 56.9302180733067 135.669322637106 56.9302180733067 C 136.088504460837 56.9302180733067 136.54141583779 56.8727458443028 137.02789655068 56.758172171889 Z M 135.230312016989 54.9131282295567 C 134.898082402731 54.7787174906117 134.648914006735 54.5473452534062 134.482799199606 54.2190121139866 C 134.316684392477 53.890864225803 134.23363080361 53.5248959984166 134.23363080361 53.1214779342991 C 134.23363080361 52.662812563358 134.316684392477 52.2751530136448 134.482799199606 51.9586852516514 C 134.648914006735 51.6424025024754 134.899936345602 51.3852604355198 135.23624005654 51.1874450172764 C 135.572360662009 50.9898146118504 135.993579534079 50.8492854561192 136.499889043356 50.7662290062291 C 137.006015447165 50.6831725563389 137.603358891989 50.6416438545567 138.291537908102 50.6416438545567 C 138.291537908102 50.6416438545567 139.169566777731 50.6416438545567 139.169566777731 50.6416438545567 C 139.169566777731 50.6416438545567 139.169566777731 53.9757748569829 139.169566777731 53.9757748569829 C 139.027187016989 54.1261294807774 138.833263066794 54.2863102878911 138.588168767477 54.4563168014866 C 138.342891362692 54.6265088047368 138.008632329489 54.7787174906117 137.585559514548 54.9131282295567 C 137.162303594137 55.0477245773655 136.741092351462 55.1148372616154 136.321910527731 55.1148372616154 C 135.926280644919 55.1148372616154 135.562534001852 55.0477245773655 135.230312016989 54.9131282295567 Z M 150.886478093649 56.7047786198092 C 151.499393132712 56.5546092565638 152.02350201943 56.3250911261422 152.458621648337 56.0165950383526 C 152.893558171774 55.7080989803654 153.229861882712 55.3206249203068 153.467166570212 54.8538020576817 C 153.704471257712 54.3871646847111 153.823123601462 53.8413639988286 153.823123601462 53.2163997616154 C 153.823123601462 52.6468685592991 153.710406926657 52.1209052528721 153.484965947653 51.6383236374241 C 153.259524968649 51.1559279884678 152.875758794333 50.7525099243504 152.334041265036 50.428069921909 C 151.792133000876 50.1038154091221 151.046664861227 49.7953189339024 150.097446111227 49.5025814499241 C 149.638591435934 49.360198828159 149.225345281149 49.2278274025303 148.857524541403 49.1050961937291 C 148.489703801657 48.9825504745823 148.179172185446 48.8499935592991 147.926105168845 48.707610937534 C 147.672855046774 48.5652278389317 147.477077153708 48.4031938042027 147.33877911904 48.2211364235264 C 147.200290349509 48.0392640556675 147.131137517477 47.8177178825718 147.131137517477 47.5566829170567 C 147.131137517477 47.0425847496373 147.324870732809 46.6590045418126 147.712527898337 46.4057553734166 C 148.100001958395 46.1526921715123 148.70123639443 46.0260680641514 149.516048100973 46.0260680641514 C 150.204227117087 46.0260680641514 150.834941533591 46.0755685295445 151.408549932028 46.1743834938389 C 151.981975224997 46.2733844246251 152.525737432028 46.4098342384678 153.040019658591 46.5837338890416 C 153.040019658591 46.5837338890416 153.040019658591 44.6378358330113 153.040019658591 44.6378358330113 C 152.589145329977 44.503424974857 152.067073491598 44.3886655296666 151.473811772848 44.2937434639317 C 150.880550054098 44.1988223518712 150.180499700095 44.1513608421666 149.373660710837 44.1513608421666 C 148.693263677145 44.1513608421666 148.072383550192 44.2305243934971 147.51082196572 44.3886655296666 C 146.949077275778 44.5469926323277 146.470576909567 44.7763255562169 146.075130132223 45.0768493141514 C 145.679500249411 45.3775590385777 145.37304272988 45.7531674827916 145.155574468161 46.2040465797764 C 144.937923100973 46.6549256767613 144.829280522848 47.1692088569981 144.829280522848 47.7465270485264 C 144.829280522848 48.2845414604527 144.916232732321 48.7393134559971 145.090312627341 49.1110290016514 C 145.264217046286 49.4829295601231 145.507449773337 49.7992123092991 145.820026067282 50.0602477516514 C 146.132419255759 50.3212827171666 146.500239995505 50.5428288902623 146.923495915915 50.724700781284 C 147.346561101462 50.9067576851231 147.807452825095 51.080657812534 148.305789617087 51.2467711891514 C 148.724971440817 51.3971255745274 149.183818486716 51.5513738121373 149.682162908102 51.7095149483067 C 150.180499700095 51.8678420509678 150.59374585488 52.0754836525303 150.922076848532 52.3324397529942 C 151.250224736716 52.5895818199498 151.414485600973 52.9316342796666 151.414485600973 53.3587826217991 C 151.414485600973 53.6198178257329 151.349223760153 53.8849316562993 151.218707707907 54.1537533726079 C 151.088191655661 54.4227603401524 150.811214116598 54.6383739437443 150.388141301657 54.8004085745198 C 149.964885381247 54.9626285757405 149.397395757223 55.0436458315236 148.685481694723 55.0436458315236 C 148.242389348532 55.0436458315236 147.801517156149 55.012128802715 147.362506536032 54.9487240042073 C 146.923495915915 54.8855045761448 146.537875798727 54.8044872011525 146.20564618447 54.7054867472035 C 145.873416570212 54.6066714252812 145.501521733786 54.474114509998 145.090312627341 54.3080013717991 C 145.090312627341 54.3080013717991 144.461459783102 56.0877864684445 144.461459783102 56.0877864684445 C 144.627566960837 56.1669497813565 144.845035222555 56.2538997258526 145.114047673727 56.3488216127736 C 145.382869390036 56.4437434698922 145.701373723532 56.5347720708233 146.069194463278 56.6217219855172 C 146.437015203024 56.708671900211 146.852298406149 56.7819026436192 147.315044072653 56.8412288154942 C 147.777789739157 56.9005549873692 148.285953191305 56.9302180733067 148.839725163962 56.9302180733067 C 149.591128972555 56.9302180733067 150.273379949118 56.8549479867798 150.886478093649 56.7047786198092 Z M 162.28897443154 56.7047786198092 C 162.901889470602 56.5546092565638 163.425998357321 56.3250911261422 163.861117986227 56.0165950383526 C 164.296054509665 55.7080989803654 164.632358220602 55.3206249203068 164.869662908102 54.8538020576817 C 165.106967595602 54.3871646847111 165.225619939352 53.8413639988286 165.225619939352 53.2163997616154 C 165.225619939352 52.6468685592991 165.112903264548 52.1209052528721 164.887462285544 51.6383236374241 C 164.66202130654 51.1559279884678 164.278255132223 50.7525099243504 163.736537602927 50.428069921909 C 163.194629338766 50.1038154091221 162.449161199118 49.7953189339024 161.499942449118 49.5025814499241 C 161.041087773825 49.360198828159 160.62784161904 49.2278274025303 160.260020879294 49.1050961937291 C 159.892200139548 48.9825504745823 159.581668523337 48.8499935592991 159.328601506735 48.707610937534 C 159.075351384665 48.5652278389317 158.879573491598 48.4031938042027 158.74127545693 48.2211364235264 C 158.602786687399 48.0392640556675 158.533633855368 47.8177178825718 158.533633855368 47.5566829170567 C 158.533633855368 47.0425847496373 158.7273670707 46.6590045418126 159.115024236227 46.4057553734166 C 159.502498296286 46.1526921715123 160.103732732321 46.0260680641514 160.918544438864 46.0260680641514 C 161.606723454977 46.0260680641514 162.237437871481 46.0755685295445 162.811046269919 46.1743834938389 C 163.384471562887 46.2733844246251 163.928233769919 46.4098342384678 164.442515996481 46.5837338890416 C 164.442515996481 46.5837338890416 164.442515996481 44.6378358330113 164.442515996481 44.6378358330113 C 163.991641667868 44.503424974857 163.469569829489 44.3886655296666 162.876308110739 44.2937434639317 C 162.283046391989 44.1988223518712 161.582996037985 44.1513608421666 160.776157048727 44.1513608421666 C 160.095760015036 44.1513608421666 159.474879888083 44.2305243934971 158.91331830361 44.3886655296666 C 158.351573613669 44.5469926323277 157.873073247458 44.7763255562169 157.477626470114 45.0768493141514 C 157.081996587302 45.3775590385777 156.77553906777 45.7531674827916 156.558070806052 46.2040465797764 C 156.340419438864 46.6549256767613 156.231776860739 47.1692088569981 156.231776860739 47.7465270485264 C 156.231776860739 48.2845414604527 156.318729070212 48.7393134559971 156.492808965231 49.1110290016514 C 156.666713384177 49.4829295601231 156.909946111227 49.7992123092991 157.222522405173 50.0602477516514 C 157.534915593649 50.3212827171666 157.902736333395 50.5428288902623 158.325992253805 50.724700781284 C 158.749057439352 50.9067576851231 159.209949162985 51.080657812534 159.708285954977 51.2467711891514 C 160.127467778708 51.3971255745274 160.586314824606 51.5513738121373 161.084659245993 51.7095149483067 C 161.582996037985 51.8678420509678 161.99624219277 52.0754836525303 162.324573186423 52.3324397529942 C 162.652721074606 52.5895818199498 162.816981938864 52.9316342796666 162.816981938864 53.3587826217991 C 162.816981938864 53.6198178257329 162.751720098044 53.8849316562993 162.621204045798 54.1537533726079 C 162.490687993552 54.4227603401524 162.213710454489 54.6383739437443 161.790637639548 54.8004085745198 C 161.367381719137 54.9626285757405 160.799892095114 55.0436458315236 160.087978032614 55.0436458315236 C 159.644885686423 55.0436458315236 159.20401349404 55.012128802715 158.765002873923 54.9487240042073 C 158.325992253805 54.8855045761448 157.940372136618 54.8044872011525 157.60814252236 54.7054867472035 C 157.275912908102 54.6066714252812 156.904018071677 54.474114509998 156.492808965231 54.3080013717991 C 156.492808965231 54.3080013717991 155.863956120993 56.0877864684445 155.863956120993 56.0877864684445 C 156.030063298727 56.1669497813565 156.247531560446 56.2538997258526 156.516544011618 56.3488216127736 C 156.785365727927 56.4437434698922 157.103870061423 56.5347720708233 157.471690801169 56.6217219855172 C 157.839511540915 56.708671900211 158.25479474404 56.7819026436192 158.717540410544 56.8412288154942 C 159.180286077048 56.9005549873692 159.688449529196 56.9302180733067 160.242221501852 56.9302180733067 C 160.993625310446 56.9302180733067 161.675876287009 56.8549479867798 162.28897443154 56.7047786198092 Z M 175.803477910544 56.876824515639 C 176.400630620505 56.8015544365627 176.956256536032 56.6851268259344 177.470538762595 56.5268001134974 C 177.470538762595 56.5268001134974 177.007800725485 54.7232845749241 177.007800725485 54.7232845749241 C 176.620135930563 54.83415028709 176.16926160195 54.9270328010899 175.655162480856 55.0021174873692 C 175.140880254294 55.077387663303 174.611018804098 55.1148372616154 174.065219548727 55.1148372616154 C 172.886485723044 55.1148372616154 171.996593144919 54.7846500601155 171.395541814352 54.1240902866704 C 170.794307378317 53.4637158836705 170.446323064352 52.5124577011448 170.351398137595 51.2705014671666 C 170.351398137595 51.2705014671666 178.194324162985 51.2705014671666 178.194324162985 51.2705014671666 C 178.225833562399 50.8592971290928 178.24177899697 50.3806088890416 178.24177899697 49.834808203159 C 178.24177899697 47.9918034996373 177.826495793845 46.5759471382481 176.995929387595 45.5870545830113 C 176.165362981345 44.5983470405919 174.93138470986 44.1039002861363 173.293979314352 44.1039002861363 C 172.415950444723 44.1039002861363 171.636737493063 44.2601874794346 170.956531194235 44.5725768532139 C 170.276134160544 44.8851512398106 169.706599858786 45.3260196174962 169.247935918356 45.8955501045567 C 168.789081243063 46.4650815452916 168.441096929098 47.1473325218541 168.203792241598 47.9423030342442 C 167.966487554098 48.7372740234715 167.847835210348 49.6134475197178 167.847835210348 50.5704525436741 C 167.847835210348 51.5513738121373 167.978351262595 52.4373730148655 168.239390996481 53.2282651390416 C 168.500423100973 54.0193425144536 168.881969121481 54.6936214889866 169.384387639548 55.2512874330861 C 169.886615422751 55.8089534367901 170.501567510153 56.2381412114483 171.229427007223 56.5386653419119 C 171.957103398825 56.8391894723755 172.787669805075 56.9895442451817 173.721126225973 56.9895442451817 C 174.512019780661 56.9895442451817 175.20613446572 56.9519091870171 175.803477910544 56.876824515639 Z M 171.13450970986 46.8210385765416 C 171.616901067282 46.164557787357 172.316951421286 45.8362239326817 173.234653142477 45.8362239326817 C 174.104709294821 45.8362239326817 174.743388799216 46.1132033790928 175.150890019919 46.6667903389317 C 175.558200505759 47.2205632652623 175.76195111611 48.003669115482 175.76195111611 49.0161069359166 C 175.76195111611 49.0161069359166 175.76195111611 49.5737727608067 175.76195111611 49.5737727608067 C 175.76195111611 49.5737727608067 170.30394330361 49.5737727608067 170.30394330361 49.5737727608067 C 170.375133183981 48.3952210869175 170.651927617575 47.4777053322178 171.13450970986 46.8210385765416 Z " stroke="none" fill="#FFFFFF"/>
  </g>
</svg>